<?xml version="1.0" encoding="utf-8"?>
<svg version="1.1" xmlns="http://www.w3.org/2000/svg" xmlns:xlink="http://www.w3.org/1999/xlink" x="0px" y="0px"
	 viewBox="0 0 495.7 125" xml:space="preserve">
<style type="text/css">
  path{fill:#000000;}
</style>
<g>
	<path d="M62.9,123.9C29,123.9,1.5,96.3,1.5,62.5S29,1.1,62.9,1.1c33.8,0,61.4,27.5,61.4,61.4S96.7,123.9,62.9,123.9z M62.9,8.1
		c-30,0-54.4,24.4-54.4,54.4c0,30,24.4,54.4,54.4,54.4s54.4-24.4,54.4-54.4C117.2,32.5,92.8,8.1,62.9,8.1z M62.9,107
		c-24.6,0-44.5-20-44.5-44.5S38.3,18,62.9,18c4.4,0,8.7,0.6,12.9,1.9l4.2,1.3L77.8,25c-0.7,1.2-1,2.5-1,3.9c0,4.3,3.5,7.9,7.9,7.9
		c2.5,0,4.9-1.2,6.4-3.2l2.6-3.5l2.9,3.3c7.1,8.1,11,18.5,11,29.2C107.4,87.1,87.4,107,62.9,107z M62.9,25
		c-20.7,0-37.5,16.8-37.5,37.5c0,20.7,16.8,37.5,37.5,37.5c20.7,0,37.5-16.8,37.5-37.5c0-7.8-2.4-15.4-6.9-21.7
		c-2.5,1.9-5.6,2.9-8.9,2.9c-8.2,0-14.9-6.7-14.9-14.9c0-1.1,0.1-2.2,0.4-3.2C67.7,25.2,65.3,25,62.9,25z"/>
	<g>
		<path d="M177.7,30c0-0.1,0-0.2,0.1-0.3c0.1-0.1,0.2-0.1,0.4-0.1h17.5c0.2,0,0.3,0,0.4,0.1c0.1,0.1,0.1,0.2,0.1,0.3
			c0,0.1-0.1,0.2-0.2,0.3c-0.1,0.1-0.3,0.1-0.5,0.2l-1,0.4c-1.6,0.6-3.2,1.8-4.7,3.5c-1.5,1.7-2.7,4-3.4,6.8L172.8,91
			c-0.2,1-0.4,1.8-0.4,2.6c-0.1,0.8-0.1,1.6-0.1,2.4v4.4c0,0.2,0,0.4-0.1,0.5c-0.1,0.1-0.2,0.2-0.4,0.2H152c-0.2,0-0.4-0.1-0.5-0.2
			c-0.1-0.1-0.2-0.3-0.2-0.5v-4.3c0-0.5-0.1-1.1-0.3-1.9c-0.2-0.8-0.4-1.6-0.7-2.5l-17.7-58.1c-0.2-0.7-0.5-1.2-0.7-1.6
			c-0.2-0.4-0.5-0.6-0.9-0.7l-1.4-0.6c-0.5-0.2-0.8-0.4-0.8-0.6c0-0.1,0.1-0.2,0.2-0.3c0.1-0.1,0.3-0.1,0.5-0.1h29.9
			c0.2,0,0.4,0,0.5,0.1c0.1,0.1,0.2,0.2,0.2,0.3c0,0.1-0.1,0.2-0.2,0.3c-0.1,0.1-0.3,0.1-0.6,0.2l-1.7,0.5c-1,0.3-1.5,0.6-1.7,1.1
			c-0.2,0.5-0.1,1.2,0.2,2.2l16.5,55.9l-1.6,3.8l14.6-52.6c0.6-2.3,0.6-4.4-0.3-6.3c-0.8-2-2.7-3.4-5.7-4.3l-1-0.3
			c-0.2-0.1-0.4-0.1-0.5-0.2C177.8,30.3,177.7,30.1,177.7,30z"/>
		<path d="M219.1,54.8v42.9c0,0.5,0.1,1,0.3,1.3c0.2,0.3,0.5,0.5,0.9,0.6l1.9,0.5c0.2,0,0.4,0.1,0.5,0.2c0.1,0.1,0.1,0.2,0.1,0.3
			c0,0.1,0,0.2-0.1,0.3c-0.1,0.1-0.2,0.1-0.4,0.1h-25c-0.1,0-0.3,0-0.4-0.1s-0.2-0.2-0.2-0.3c0-0.1,0-0.2,0.1-0.3
			c0.1-0.1,0.2-0.1,0.5-0.2l1.9-0.5c0.5-0.1,0.8-0.3,1-0.6c0.2-0.3,0.3-0.8,0.3-1.3V61.4c0-0.3-0.1-0.5-0.2-0.6
			c-0.1-0.1-0.4-0.2-0.7-0.2h-2c-0.2,0-0.4,0-0.5-0.1c-0.1-0.1-0.1-0.2-0.1-0.3s0.1-0.2,0.2-0.3c0.1-0.1,0.2-0.1,0.4-0.2l19.3-5.4
			c0.4-0.1,0.7-0.2,0.8-0.2c0.2,0,0.3-0.1,0.5-0.1c0.2,0,0.4,0.1,0.5,0.2S219.1,54.6,219.1,54.8z M209.7,51.2c-3.1,0-5.6-1-7.5-3
			c-1.9-2-2.9-4.4-2.9-7.2c0-2.9,1-5.3,2.9-7.2c1.9-2,4.5-3,7.5-3c3.1,0,5.7,1,7.7,3c2,2,3,4.4,3,7.2c0,2.9-1,5.3-3,7.2
			C215.4,50.2,212.8,51.2,209.7,51.2z"/>
		<path d="M247.6,55.7c-1.8,0-3.3,0.4-4.3,1.3c-1,0.9-1.5,2.1-1.5,3.6c0,1.1,0.3,2.2,0.8,3.1c0.5,0.9,1.5,1.8,2.8,2.7
			c1.3,0.8,3.2,1.6,5.5,2.4c4.5,1.5,8,3.2,10.5,5c2.5,1.8,4.3,3.8,5.3,6s1.5,4.7,1.5,7.4c0,4.8-1.6,8.5-4.8,11
			c-3.2,2.5-7.6,3.8-13,3.8c-2.1,0-3.9-0.2-5.3-0.6c-1.4-0.4-2.4-0.8-3.2-1.2c-0.7-0.4-1.2-0.6-1.5-0.6c-0.4,0-1.2,0.2-2.3,0.6
			c-1.2,0.4-2.3,0.8-3.4,1.2c-1.1,0.4-1.9,0.6-2.3,0.6c-0.1,0-0.3,0-0.5-0.1c-0.2-0.1-0.3-0.3-0.4-0.6l-2.1-16.2c0-0.4,0-0.7,0-0.9
			c0-0.2,0.1-0.3,0.2-0.4c0.1-0.1,0.2-0.1,0.3,0c0.1,0.1,0.2,0.2,0.3,0.3c2.6,4.3,4.9,7.6,7,10c2.1,2.4,4.1,4.1,6.1,5.1
			c2,1,4,1.5,6.2,1.5c1.9,0,3.4-0.5,4.4-1.5c1-1,1.5-2.3,1.5-3.9c0-1.3-0.3-2.4-0.9-3.4c-0.6-1-1.7-2-3.3-2.9s-3.9-1.7-6.8-2.6
			c-3.9-1.1-7-2.5-9.3-4.2s-3.9-3.6-4.9-5.7c-1-2.1-1.5-4.4-1.5-6.9c0-3.2,0.8-5.9,2.3-8.2c1.6-2.3,3.7-4.1,6.3-5.3
			c2.6-1.2,5.5-1.9,8.7-1.9c1.9,0,3.6,0.2,4.9,0.7c1.4,0.5,2.5,1,3.3,1.4c0.8,0.5,1.3,0.7,1.5,0.7c0.3,0,1-0.2,2-0.6
			c1.1-0.4,2.2-0.8,3.3-1.3c1.1-0.4,1.8-0.6,2.2-0.6c0.3,0,0.5,0.1,0.7,0.3c0.2,0.2,0.3,0.6,0.4,1.1l1.7,13.4c0.1,0.4,0.1,0.8,0,1
			c-0.1,0.2-0.2,0.4-0.3,0.5c0,0-0.1,0-0.2-0.1c-0.1-0.1-0.2-0.2-0.4-0.3c-3.3-5.2-6.3-9-9.2-11.2C253.3,56.9,250.4,55.7,247.6,55.7
			z"/>
		<path d="M296.3,54.8v42.9c0,0.5,0.1,1,0.3,1.3c0.2,0.3,0.5,0.5,0.9,0.6l1.9,0.5c0.2,0,0.4,0.1,0.5,0.2c0.1,0.1,0.1,0.2,0.1,0.3
			c0,0.1,0,0.2-0.1,0.3c-0.1,0.1-0.2,0.1-0.4,0.1h-25c-0.1,0-0.3,0-0.4-0.1s-0.2-0.2-0.2-0.3c0-0.1,0-0.2,0.1-0.3
			c0.1-0.1,0.2-0.1,0.5-0.2l1.9-0.5c0.5-0.1,0.8-0.3,1-0.6c0.2-0.3,0.3-0.8,0.3-1.3V61.4c0-0.3-0.1-0.5-0.2-0.6
			c-0.1-0.1-0.4-0.2-0.7-0.2h-2c-0.2,0-0.4,0-0.5-0.1c-0.1-0.1-0.1-0.2-0.1-0.3s0.1-0.2,0.2-0.3c0.1-0.1,0.2-0.1,0.4-0.2l19.3-5.4
			c0.4-0.1,0.7-0.2,0.8-0.2c0.2,0,0.3-0.1,0.5-0.1c0.2,0,0.4,0.1,0.5,0.2S296.3,54.6,296.3,54.8z M286.9,51.2c-3.1,0-5.6-1-7.5-3
			c-1.9-2-2.9-4.4-2.9-7.2c0-2.9,1-5.3,2.9-7.2c1.9-2,4.5-3,7.5-3c3.1,0,5.7,1,7.7,3c2,2,3,4.4,3,7.2c0,2.9-1,5.3-3,7.2
			C292.6,50.2,290,51.2,286.9,51.2z"/>
		<path d="M330.1,54.3c4.9,0,9.2,1,12.9,3.1c3.7,2,6.6,4.9,8.7,8.5c2.1,3.6,3.2,7.8,3.2,12.5c0,4.6-1.1,8.7-3.3,12.3
			c-2.2,3.6-5.2,6.3-9.1,8.4c-3.8,2-8.3,3-13.3,3c-4.9,0-9.2-1-12.9-3s-6.6-4.8-8.7-8.3c-2.1-3.6-3.2-7.7-3.2-12.3
			c0-4.6,1.1-8.7,3.3-12.4c2.2-3.6,5.3-6.5,9.1-8.6C320.8,55.3,325.2,54.3,330.1,54.3z M333,101c1.2-0.2,2.1-1.1,2.7-2.9
			c0.6-1.7,0.9-4.3,0.8-7.8c0-3.4-0.4-7.8-1.2-13c-0.7-5.2-1.6-9.5-2.5-12.8c-0.9-3.3-1.9-5.7-2.9-7.2c-1.1-1.5-2.2-2.2-3.5-2
			c-1.2,0.2-2.1,1.2-2.7,2.9c-0.6,1.7-0.9,4.3-0.8,7.7c0.1,3.4,0.5,7.7,1.2,12.9c0.7,5.2,1.6,9.5,2.4,12.8c0.9,3.3,1.9,5.7,2.9,7.2
			C330.6,100.5,331.8,101.2,333,101z"/>
		<path d="M380.1,55.7c-1.8,0-3.3,0.4-4.3,1.3c-1,0.9-1.5,2.1-1.5,3.6c0,1.1,0.3,2.2,0.8,3.1c0.5,0.9,1.5,1.8,2.8,2.7
			c1.3,0.8,3.2,1.6,5.5,2.4c4.5,1.5,8,3.2,10.5,5c2.5,1.8,4.3,3.8,5.3,6s1.5,4.7,1.5,7.4c0,4.8-1.6,8.5-4.8,11
			c-3.2,2.5-7.6,3.8-13,3.8c-2.1,0-3.9-0.2-5.3-0.6c-1.4-0.4-2.4-0.8-3.2-1.2c-0.7-0.4-1.2-0.6-1.5-0.6c-0.4,0-1.2,0.2-2.3,0.6
			c-1.2,0.4-2.3,0.8-3.4,1.2c-1.1,0.4-1.9,0.6-2.3,0.6c-0.1,0-0.3,0-0.5-0.1c-0.2-0.1-0.3-0.3-0.4-0.6L362,85.1c0-0.4,0-0.7,0-0.9
			c0-0.2,0.1-0.3,0.2-0.4c0.1-0.1,0.2-0.1,0.3,0c0.1,0.1,0.2,0.2,0.3,0.3c2.6,4.3,4.9,7.6,7,10c2.1,2.4,4.1,4.1,6.1,5.1
			c2,1,4,1.5,6.2,1.5c1.9,0,3.4-0.5,4.4-1.5c1-1,1.5-2.3,1.5-3.9c0-1.3-0.3-2.4-0.9-3.4c-0.6-1-1.7-2-3.3-2.9s-3.9-1.7-6.8-2.6
			c-3.9-1.1-7-2.5-9.3-4.2s-3.9-3.6-4.9-5.7c-1-2.1-1.5-4.4-1.5-6.9c0-3.2,0.8-5.9,2.3-8.2c1.6-2.3,3.7-4.1,6.3-5.3
			c2.6-1.2,5.5-1.9,8.7-1.9c1.9,0,3.6,0.2,4.9,0.7c1.4,0.5,2.5,1,3.3,1.4c0.8,0.5,1.3,0.7,1.5,0.7c0.3,0,1-0.2,2-0.6
			c1.1-0.4,2.2-0.8,3.3-1.3c1.1-0.4,1.8-0.6,2.2-0.6c0.3,0,0.5,0.1,0.7,0.3c0.2,0.2,0.3,0.6,0.4,1.1l1.7,13.4c0.1,0.4,0.1,0.8,0,1
			c-0.1,0.2-0.2,0.4-0.3,0.5c0,0-0.1,0-0.2-0.1c-0.1-0.1-0.2-0.2-0.4-0.3c-3.3-5.2-6.3-9-9.2-11.2C385.8,56.9,383,55.7,380.1,55.7z"
			/>
		<path d="M409.1,57.2l-3.8-1c-0.2-0.1-0.4-0.1-0.5-0.2c-0.1-0.1-0.1-0.2-0.1-0.3c0-0.1,0-0.2,0.1-0.3c0.1-0.1,0.2-0.1,0.3-0.1h4.1
			c0.1,0,0.2,0,0.3-0.1c0.1,0,0.3-0.1,0.5-0.3L425,44.5c0.3-0.2,0.6-0.4,0.9-0.5c0.3-0.1,0.6-0.2,0.8-0.2c0.3,0,0.5,0.1,0.7,0.3
			c0.2,0.2,0.3,0.5,0.3,0.8v41.3c0,3,0.5,5.3,1.6,6.8c1.1,1.5,2.6,2.2,4.4,2.2c0.6,0,1.2-0.1,1.8-0.3c0.6-0.2,1.1-0.5,1.6-1
			c0.5-0.5,0.9-1.1,1.3-1.9c0.4-0.8,0.7-1.8,0.9-3.1c0.1-0.3,0.2-0.4,0.4-0.4s0.3,0.1,0.2,0.4c-0.5,3-1.3,5.4-2.5,7.3
			c-1.1,1.9-2.7,3.4-4.6,4.4c-2,1-4.4,1.5-7.4,1.5c-5,0-8.9-1.2-11.5-3.5c-2.6-2.3-3.9-5.9-3.9-10.7V58.2c0-0.3,0-0.5-0.1-0.7
			C409.6,57.4,409.4,57.3,409.1,57.2z M422.2,56.6l0.6-1.3h16.6c0.2,0,0.3,0,0.4,0.1c0.1,0.1,0.1,0.2,0.1,0.3c0,0.2-0.1,0.5-0.4,0.6
			c-0.3,0.2-0.6,0.3-1.1,0.3H422.2z"/>
		<path d="M469.9,54.3c4.9,0,9.2,1,12.9,3.1c3.7,2,6.6,4.9,8.7,8.5c2.1,3.6,3.2,7.8,3.2,12.5c0,4.6-1.1,8.7-3.3,12.3
			c-2.2,3.6-5.2,6.3-9.1,8.4c-3.8,2-8.3,3-13.3,3c-4.9,0-9.2-1-12.9-3s-6.6-4.8-8.7-8.3c-2.1-3.6-3.2-7.7-3.2-12.3
			c0-4.6,1.1-8.7,3.3-12.4c2.2-3.6,5.3-6.5,9.1-8.6C460.7,55.3,465,54.3,469.9,54.3z M472.8,101c1.2-0.2,2.1-1.1,2.7-2.9
			c0.6-1.7,0.9-4.3,0.8-7.8c0-3.4-0.4-7.8-1.2-13c-0.7-5.2-1.6-9.5-2.5-12.8c-0.9-3.3-1.9-5.7-2.9-7.2c-1.1-1.5-2.2-2.2-3.5-2
			c-1.2,0.2-2.1,1.2-2.7,2.9c-0.6,1.7-0.9,4.3-0.8,7.7c0.1,3.4,0.5,7.7,1.2,12.9c0.7,5.2,1.6,9.5,2.4,12.8c0.9,3.3,1.9,5.7,2.9,7.2
			C470.5,100.5,471.6,101.2,472.8,101z"/>
	</g>
</g>
</svg>
